<svg xmlns="http://www.w3.org/2000/svg" viewBox="0 0 124 34"><g fill="#FFF"><ellipse cx="18" cy="16.1" rx="1.7" ry="1.9"/><ellipse cx="11.8" cy="16.1" rx="1.7" ry="1.9"/><path d="M26.3 0H3.5C1.6 0 0 1.6 0 3.5v23C0 28.4 1.6 30 3.5 30h19.3l-.9-3.1 2.2 2 2.1 1.9 3.7 3.2V3.5C29.8 1.6 28.2 0 26.3 0zm-6.6 22.2s-.6-.7-1.1-1.4c2.2-.6 3.1-2 3.1-2-.7.5-1.4.8-2 1-.8.4-1.7.6-2.5.7-1.6.3-3.1.2-4.4 0-1-.2-1.8-.5-2.5-.7-.4-.1-.8-.3-1.2-.6-.1 0-.1-.1-.2-.1h-.1c-.3-.2-.5-.3-.5-.3s.8 1.4 3 2c-.5.6-1.1 1.4-1.1 1.4-3.7-.1-5.2-2.6-5.2-2.6 0-5.5 2.4-9.9 2.4-9.9 2.4-1.8 4.8-1.8 4.8-1.8l.2.2C9.4 9 8 10.4 8 10.4l1-.5c1.8-.8 3.3-1 3.9-1.1h.3c1-.1 2.2-.2 3.4 0 1.6.2 3.4.7 5.1 1.6 0 0-1.3-1.3-4.2-2.2l.2-.3s2.3-.1 4.8 1.8c0 0 2.4 4.4 2.4 9.9 0 0-1.4 2.5-5.2 2.6zM45.6 7.3h-5.7v6.4l3.8 3.4v-6.2h2c1.3 0 1.9.6 1.9 1.6v4.8c0 1-.6 1.7-1.9 1.7h-5.8v3.6h5.7c3 0 5.9-1.5 5.9-5v-5.1c-.1-3.6-2.9-5.2-5.9-5.2zm29.7 10.3v-5.3c0-1.9 3.4-2.3 4.4-.4l3.1-1.3c-1.2-2.7-3.5-3.5-5.3-3.5-3 0-6 1.8-6 5.2v5.3c0 3.5 3 5.2 6 5.2 1.9 0 4.2-.9 5.5-3.4l-3.3-1.6c-1 2.1-4.4 1.6-4.4-.2zM65 13c-1.2-.3-2-.7-2-1.4.1-1.8 2.8-1.8 4.4-.1l2.5-1.9c-1.6-1.9-3.3-2.4-5.2-2.4-2.8 0-5.5 1.6-5.5 4.6 0 2.9 2.2 4.5 4.7 4.8 1.2.2 2.6.7 2.6 1.5-.1 1.6-3.5 1.6-5-.3L59 20c1.4 1.8 3.3 2.8 5.2 2.8 2.8 0 5.9-1.6 6-4.6.2-3.7-2.5-4.7-5.2-5.2zm-11.5 9.6h3.8V7.3h-3.8v15.3zm64.6-15.3h-5.7v6.4l3.8 3.4v-6.2h2c1.3 0 1.9.6 1.9 1.6v4.8c0 1-.6 1.7-1.9 1.7h-5.8v3.6h5.7c3 0 5.9-1.5 5.9-5v-5.1c0-3.6-2.9-5.2-5.9-5.2zm-27.9-.2c-3.2 0-6.3 1.7-6.3 5.2v5.2c0 3.5 3.2 5.2 6.3 5.2 3.2 0 6.3-1.7 6.3-5.2v-5.2c0-3.4-3.1-5.2-6.3-5.2zm2.5 10.5c0 1.1-1.2 1.7-2.4 1.7s-2.5-.5-2.5-1.7v-5.2c0-1.1 1.2-1.7 2.4-1.7s2.5.5 2.5 1.7v5.2zm17.6-5.2c-.1-3.6-2.5-5-5.6-5h-6.1v15.2h3.9v-4.8h.7l3.5 4.8h4.8l-4.1-5.2c1.8-.6 2.9-2.2 2.9-5zm-5.6 2h-2.3v-3.5h2.3c2.4 0 2.4 3.5 0 3.5z"/></g></svg>